HIERARCHY
ROOT root
{
	OFFSET 0.000000 0.000000 0.000000
	CHANNELS 6 Xposition Yposition Zposition Zrotation Yrotation Xrotation
	JOINT lhip
	{
		OFFSET 0.058581 -0.082280 -0.017664
		CHANNELS 3 Zrotation Yrotation Xrotation
		JOINT lknee
		{
			OFFSET 0.043451 -0.386469 0.008037
			CHANNELS 3 Zrotation Yrotation Xrotation
			JOINT lankle
			{
				OFFSET -0.014790 -0.426874 -0.037428
				CHANNELS 3 Zrotation Yrotation Xrotation
				JOINT ltoe
				{
					OFFSET 0.041054 -0.060286 0.122042
					CHANNELS 3 Zrotation Yrotation Xrotation
					End Site
					{
						OFFSET 0.000000 0.000000 0.000000
					}
				}
			}
		}
	}
	JOINT rhip
	{
		OFFSET -0.060310 -0.090513 -0.013543
		CHANNELS 3 Zrotation Yrotation Xrotation
		JOINT rknee
		{
			OFFSET -0.043257 -0.383688 -0.004843
			CHANNELS 3 Zrotation Yrotation Xrotation
			JOINT rankle
			{
				OFFSET 0.019056 -0.420046 -0.034562
				CHANNELS 3 Zrotation Yrotation Xrotation
				JOINT rtoe
				{
					OFFSET -0.034840 -0.062106 0.130323
					CHANNELS 3 Zrotation Yrotation Xrotation
					End Site
					{
						OFFSET 0.000000 0.000000 0.000000
					}
				}
			}
		}
	}
	JOINT lowerback
	{
		OFFSET 0.004439 0.124404 -0.038385
		CHANNELS 3 Zrotation Yrotation Xrotation
		JOINT upperback
		{
			OFFSET 0.004488 0.137956 0.026820
			CHANNELS 3 Zrotation Yrotation Xrotation
			JOINT chest
			{
				OFFSET -0.002265 0.056032 0.002855
				CHANNELS 3 Zrotation Yrotation Xrotation
				JOINT lowerneck
				{
					OFFSET -0.013390 0.211636 -0.033468
					CHANNELS 3 Zrotation Yrotation Xrotation
					JOINT upperneck
					{
						OFFSET 0.010113 0.088937 0.050410
						CHANNELS 3 Zrotation Yrotation Xrotation
						End Site
						{
							OFFSET 0.000000 0.000000 0.000000
						}
					}
				}
				JOINT lclavicle
				{
					OFFSET 0.071702 0.114000 -0.018898
					CHANNELS 3 Zrotation Yrotation Xrotation
					JOINT lshoulder
					{
						OFFSET 0.122921 0.045205 -0.019046
						CHANNELS 3 Zrotation Yrotation Xrotation
						JOINT lelbow
						{
							OFFSET 0.255332 -0.015649 -0.022946
							CHANNELS 3 Zrotation Yrotation Xrotation
							JOINT lwrist
							{
								OFFSET 0.265709 0.012698 -0.007375
								CHANNELS 3 Zrotation Yrotation Xrotation
								End Site
								{
									OFFSET 0.000000 0.000000 0.000000
								}
							}
						}
					}
				}
				JOINT rclavicle
				{
					OFFSET -0.082954 0.112472 -0.023707
					CHANNELS 3 Zrotation Yrotation Xrotation
					JOINT rshoulder
					{
						OFFSET -0.113228 0.046853 -0.008472
						CHANNELS 3 Zrotation Yrotation Xrotation
						JOINT relbow
						{
							OFFSET -0.260127 -0.014369 -0.031269
							CHANNELS 3 Zrotation Yrotation Xrotation
							JOINT rwrist
							{
								OFFSET -0.269108 0.006794 -0.006027
								CHANNELS 3 Zrotation Yrotation Xrotation
								End Site
								{
									OFFSET 0.000000 0.000000 0.000000
								}
							}
						}
					}
				}
			}
		}
	}
}
MOTION
Frames: 16
Frame Time: 0.033333
0.038995 -0.693415 1.002565 -0.373741 2.149087 89.314065 -0.720257 -1.221521 -6.031418 -5.227492 -4.155690 8.300181 4.393832 9.247738 -11.288857 0.000000 -0.000000 0.000000 5.077812 0.432628 -8.606457 -0.349554 -1.206059 13.957684 1.728521 -5.909288 -8.657957 0.000000 -0.000000 0.000000 -0.666766 1.963665 14.101378 3.292371 -3.092202 -0.265980 2.486735 -1.020076 -1.572330 -1.530734 8.612061 1.485818 -1.319822 3.210300 3.779458 -20.308843 -8.090359 0.496969 -59.590384 -10.966444 16.687780 -0.669344 -27.866211 20.326857 12.106926 -8.756241 -2.485994 21.935897 6.152443 1.747009 52.996054 9.366739 16.984206 -6.830804 34.580517 19.808202 -3.611087 4.959069 10.061904 
0.038813 -0.691651 1.002615 -0.730854 2.039203 89.362338 -0.757735 -1.357878 -6.392337 -5.316784 -4.060673 8.745470 4.372944 9.343715 -11.200740 0.000000 -0.000000 0.000000 5.041022 1.218605 -9.849904 -0.505308 -1.023585 16.135002 2.221610 -6.066864 -8.960076 0.000000 -0.000000 0.000000 -1.042009 1.782530 14.838021 3.210305 -2.889083 -0.905622 2.629156 -0.984426 -0.846714 -1.447116 9.208401 1.201669 -1.447413 3.743955 3.412837 -20.004904 -7.772728 0.321906 -59.753010 -10.713821 16.632374 -0.427111 -28.710477 20.376328 11.674707 -8.440369 -2.494888 21.689583 6.172279 1.569417 53.596944 9.827775 17.361902 -6.657426 35.832877 20.514889 -2.978024 4.838050 10.718047 
0.037997 -0.688581 1.002414 -1.053205 1.809950 89.504359 -0.915076 -1.642870 -7.204085 -5.357375 -3.754309 9.734259 4.052165 9.489096 -11.268853 0.000000 -0.000000 0.000000 4.981790 2.426398 -11.790460 -0.579963 -0.430279 19.542552 2.758852 -6.300436 -10.378018 0.000000 -0.000000 0.000000 -1.537589 1.479933 15.582300 3.190239 -2.662631 -1.155032 2.618079 -1.026542 -0.436226 -1.206814 10.199003 0.749400 -1.773803 4.399583 3.277071 -19.932570 -7.068259 0.202819 -59.894321 -10.256301 16.508513 0.229828 -29.987913 20.166517 11.614765 -8.180360 -2.477463 21.758790 6.017327 1.354483 54.072968 10.412727 18.115302 -6.300634 37.250473 21.579431 -2.492687 4.811636 11.305287 
0.035474 -0.682153 1.001432 -0.986378 1.309842 89.191913 -1.135125 -2.479276 -8.138166 -5.533744 -3.514428 11.595244 3.672803 9.441163 -11.566827 0.000000 -0.000000 0.000000 4.780210 4.184487 -14.471234 -0.454593 0.949081 25.235617 3.220696 -6.142871 -11.606900 0.000000 -0.000000 0.000000 -2.122909 1.117692 17.424478 2.941516 -2.438432 -0.879323 2.400771 -1.155944 0.065881 -1.025372 11.643710 -0.229147 -2.123430 5.381345 2.789222 -20.390513 -6.427110 0.295075 -59.542445 -9.317461 16.038025 1.662628 -32.655623 18.540655 12.122684 -8.551335 -2.650082 22.370711 6.191548 1.305953 54.164410 11.051318 18.864718 -5.675427 39.855848 22.707613 -2.362080 5.403229 12.113971 
0.034383 -0.679713 1.000446 -0.708788 0.974916 89.001869 -1.310862 -2.870916 -8.489909 -5.703321 -3.608784 12.386997 3.588230 9.228809 -11.668986 0.000000 -0.000000 0.000000 4.479252 4.715366 -15.170198 -0.246655 1.592099 26.995459 3.406283 -5.718613 -11.235234 0.000000 -0.000000 0.000000 -2.421072 1.054657 18.123352 2.805623 -2.356497 -0.853369 2.306826 -1.206728 0.684764 -1.106666 11.893680 -0.774240 -2.268315 5.492163 2.347453 -20.587726 -6.067372 0.170539 -59.384188 -9.247648 16.071811 2.172637 -33.508088 17.613710 12.459777 -8.976288 -3.088121 22.582331 6.142986 1.097219 54.037578 11.333269 19.308424 -5.378172 40.723252 22.885706 -2.432746 5.731341 12.560773 
0.031621 -0.674092 0.998536 0.123488 0.423001 88.313433 -1.461862 -3.629384 -9.165220 -6.154563 -3.702737 14.354195 2.651673 8.286491 -11.677221 0.000000 -0.000000 0.000000 4.360908 5.660520 -16.008424 0.386980 4.077408 30.071802 3.027391 -5.541524 -10.981366 0.000000 -0.000000 0.000000 -2.922509 0.976682 17.713935 2.565873 -2.234358 2.300091 1.984620 -0.821178 2.583576 -1.650455 11.859517 -3.294861 -2.229646 5.463965 1.102180 -20.738921 -6.729187 -0.264838 -58.890805 -9.945028 15.539162 3.367479 -34.389747 15.173186 14.688246 -9.427645 -5.003548 22.724767 7.119781 0.620421 53.170975 12.349521 19.298945 -5.558165 42.401309 23.183696 -2.462553 6.581644 12.441162 
0.028590 -0.668037 0.996019 1.677434 -0.536271 87.818750 -1.861879 -4.536129 -10.335218 -7.104246 -4.444736 16.876108 1.639028 7.019663 -12.575565 0.000000 -0.000000 0.000000 3.455916 5.849897 -16.836176 0.404154 4.778876 32.037939 3.024363 -5.659955 -12.023408 0.000000 -0.000000 0.000000 -2.981905 1.174473 20.083814 1.916906 -2.077320 2.333090 1.537561 -0.634362 2.919497 -1.882973 11.336978 -4.325982 -1.924352 4.804011 -0.042306 -21.111893 -5.791078 -0.604196 -58.420529 -9.286734 14.617845 4.355117 -34.640790 13.660998 14.498715 -10.565859 -6.188226 22.338344 6.646226 0.290810 52.909837 11.556231 19.223816 -5.834206 44.139893 23.507991 -2.445579 7.580540 13.652177 
0.024576 -0.661534 0.991620 3.873156 -1.394031 87.665992 -1.707364 -5.160438 -12.466890 -8.927036 -6.004702 20.250123 0.508088 4.682119 -14.032706 0.000000 -0.000000 0.000000 2.559158 5.313728 -17.493889 0.455861 4.651827 33.055755 2.501924 -6.161536 -14.041682 0.000000 -0.000000 0.000000 -2.563631 1.545522 22.032152 1.359487 -1.974647 2.647995 0.992866 -0.568870 3.072092 -2.027487 10.366421 -5.142651 -1.667056 3.556550 -1.384863 -21.800672 -4.815896 -0.743165 -57.040268 -8.558553 12.950371 6.089597 -33.838248 12.991527 14.222380 -11.671645 -4.815018 21.915371 6.126189 0.137290 52.061936 10.175126 18.036549 -7.414178 44.555339 23.354003 -3.190646 8.944763 15.409688 
0.019855 -0.655144 0.985375 6.650129 -2.093654 88.036835 -1.184793 -5.461348 -15.330104 -11.521225 -8.699218 23.706920 -1.365923 1.811540 -15.831445 0.000000 -0.000000 0.000000 1.994504 4.043385 -18.344016 0.041603 3.466538 33.335416 1.642181 -7.352502 -16.353224 0.000000 -0.000000 0.000000 -1.731599 1.906428 23.903780 0.952854 -1.979504 2.019880 0.416641 -0.539105 3.136761 -2.059622 9.233241 -5.691000 -1.292973 1.772440 -2.202062 -22.094335 -3.875616 -0.645041 -54.313554 -7.358084 10.897876 6.581355 -31.350137 13.787686 13.908398 -12.583646 -2.901540 21.418323 5.146587 0.070919 50.899190 7.896942 15.598040 -9.940551 42.516731 22.324099 -4.208697 9.758429 17.290220 
0.014668 -0.648609 0.980920 9.361871 -2.383078 88.919338 -0.172359 -5.344936 -18.271047 -13.872783 -11.841214 26.436992 -3.901518 -0.907273 -17.684866 0.000000 -0.000000 0.000000 1.721401 2.666933 -19.945239 -0.158776 2.477726 33.591056 1.439303 -8.306329 -16.406104 0.000000 -0.000000 0.000000 -0.848100 2.213902 25.381564 0.984669 -1.960492 0.875397 0.213604 -0.613251 3.446918 -2.145876 8.711356 -6.955084 -1.491161 -0.008189 -2.139161 -21.708950 -2.410639 -0.716538 -50.810075 -5.716706 8.872684 6.002352 -28.055413 15.075143 13.520910 -13.422970 -0.321697 21.369896 3.248221 -0.106514 48.778946 5.753447 11.897995 -12.852769 37.446933 19.241399 -4.423578 9.569426 18.359905 
0.010088 -0.643762 0.980326 11.565616 -2.228607 89.846459 0.658748 -4.910159 -20.164406 -14.352883 -14.250892 28.108209 -4.771984 -0.943591 -19.614527 0.000000 -0.000000 0.000000 1.585435 1.758154 -20.939828 0.229236 1.683475 32.824353 1.836380 -9.015253 -15.444618 0.000000 -0.000000 0.000000 -0.351817 2.319464 26.295231 1.451392 -1.903079 -0.002398 0.610857 -0.538632 3.621339 -2.538212 8.072032 -7.547194 -1.779472 -1.556128 -2.791220 -20.700107 -0.669991 -0.826155 -47.069061 -3.423717 7.192789 5.069241 -23.986842 15.591972 11.661449 -13.241564 1.776706 21.422226 1.248972 -0.320472 45.887792 3.718048 7.392187 -15.672524 29.532467 12.088137 -3.487211 7.385500 15.403718 
0.006141 -0.640642 0.983393 13.159463 -1.526607 90.824986 1.499901 -4.155986 -21.262723 -11.431673 -12.394744 31.087308 -1.851625 5.010506 -22.717965 0.000000 -0.000000 0.000000 1.921230 1.077118 -21.106815 1.299356 1.554073 30.626537 2.073748 -10.178254 -14.005526 0.000000 -0.000000 0.000000 -0.124939 2.442278 26.204147 2.233489 -1.811665 -0.685181 1.369153 -0.614716 4.255420 -2.409910 7.143473 -7.819657 -2.183206 -2.185531 -3.313028 -19.559308 1.566934 -0.988679 -43.164463 -1.246941 5.111475 4.128363 -19.334937 14.793875 8.333174 -11.515584 2.788259 21.717082 -0.671291 -0.469592 42.058318 2.015593 3.189523 -17.471871 20.884246 2.572169 -3.736678 4.316365 10.350358 
0.002186 -0.638803 0.989044 14.002945 -0.779750 91.795922 2.778516 -3.434695 -21.244953 -7.758750 -8.751307 35.915136 0.183921 10.970569 -24.779046 0.000000 -0.000000 0.000000 2.669857 0.827529 -20.663906 1.765742 1.767380 27.449879 1.937587 -11.108321 -12.157308 0.000000 -0.000000 0.000000 -0.426779 2.791360 25.394526 3.078672 -1.761329 -0.977820 2.104242 -0.682092 5.058057 -1.795813 6.333039 -7.669637 -2.129560 -2.760682 -3.844700 -18.290286 3.988627 -1.297695 -39.625376 0.274722 2.363361 4.266116 -13.598434 11.876444 5.186467 -9.297612 3.052687 21.966357 -3.069585 -1.105505 38.763492 0.675888 -0.459111 -19.032418 13.835869 -6.883181 -4.704535 1.645905 4.538801 
-0.000539 -0.637163 0.996325 14.245478 -0.672011 92.688394 3.695068 -2.954817 -19.802526 -8.316559 -6.614001 41.435213 -0.853142 9.829938 -19.650963 0.000000 -0.000000 0.000000 2.983580 0.560157 -19.998025 1.469489 1.515788 23.957275 1.808070 -11.532929 -9.167927 0.000000 -0.000000 0.000000 -1.039252 3.087974 24.545433 3.511693 -1.836981 -0.680958 2.312902 -0.719390 5.053265 -1.156371 5.546920 -6.852826 -1.407373 -2.607067 -4.522064 -17.863667 6.068913 -1.745595 -36.385204 1.444770 -1.133859 6.815967 -7.721662 6.097863 5.365819 -6.897551 3.966149 22.466627 -5.290592 -1.790592 37.094859 -0.873027 -3.196583 -22.051038 9.349930 -13.556728 -6.598754 -0.347077 2.183754 
-0.001356 -0.634826 1.003325 14.193427 -1.021672 93.590781 3.498477 -2.066709 -17.164571 -10.577377 -4.260840 44.320948 -2.602155 7.718682 -8.669882 0.000000 -0.000000 0.000000 2.795520 -0.203556 -19.728722 1.128091 0.073949 20.993503 0.503108 -11.270340 -5.734398 0.000000 -0.000000 0.000000 -1.421318 3.173376 23.636140 3.413190 -1.941999 -0.034697 2.145497 -0.533837 4.423687 -1.303661 4.569619 -5.606783 -0.108107 -2.166269 -5.275070 -17.770246 6.821645 -1.851189 -34.684469 2.284240 -3.593418 9.921227 -2.696262 1.296894 10.642175 -6.932153 4.900866 22.608928 -6.498850 -1.616521 37.485021 -2.558335 -5.113848 -24.696093 6.728784 -17.056142 -12.382516 -0.880054 1.848110 
-0.000914 -0.631168 1.007502 14.046652 -1.114727 94.820908 2.386813 0.694534 -14.431659 -11.999560 -2.382767 44.496883 -4.199219 8.635668 -4.509607 0.000000 -0.000000 0.000000 3.060153 -1.722291 -20.749538 1.033904 -3.452177 19.599530 -0.425837 -12.123102 -4.495943 0.000000 -0.000000 0.000000 -1.038416 2.860650 22.832857 2.978629 -1.652869 -0.031099 1.910256 -0.282322 3.721049 -1.619329 3.766815 -4.855898 0.321972 -1.948204 -5.718346 -18.219231 6.548037 -2.146048 -33.766514 3.071126 -5.140454 10.454583 -0.717767 -0.061273 13.556887 -4.442132 8.762774 22.331227 -6.908535 -1.130102 38.777369 -3.696110 -7.205263 -26.229067 4.718872 -22.222370 -15.956638 -2.810439 -0.969038 
